<svg xmlns="http://www.w3.org/2000/svg" width="48" height="48" viewBox="0 0 48 48">
  <!--
    Gilded filigree corner flourish. Oriented for the top-left corner;
    consumers rotate/flip it with CSS `transform` for the other three
    corners so a single asset covers the whole frame.
  -->
  <g fill="none" stroke="#f2d999" stroke-width="1.6" stroke-linecap="round">
    <path d="M2 24 C2 11 11 2 24 2" opacity="0.9" />
    <path d="M2 16 C2 8 8 2 16 2" opacity="0.7" />
    <path d="M6 24 C6 14 14 6 24 6" opacity="0.55" />
    <path d="M2 30 C12 30 30 12 30 2" opacity="0.35" />
  </g>
  <g fill="#d8b978" stroke="#8a6a2a" stroke-width="0.75">
    <circle cx="4" cy="4" r="3" />
    <path
      d="M4 0.5
         C5.4 2 6.2 2.6 8 3
         C6.2 3.4 5.4 4 4 5.5
         C2.6 4 1.8 3.4 0 3
         C1.8 2.6 2.6 2 4 0.5 Z"
    />
  </g>
  <path
    d="M9 9 C11.5 9.6 12.8 10.9 13.4 13.4 C13.9 10.9 15.2 9.6 17.7 9 C15.2 8.4 13.9 7.1 13.4 4.6 C12.8 7.1 11.5 8.4 9 9 Z"
    fill="#f2d999"
    stroke="#8a6a2a"
    stroke-width="0.5"
    opacity="0.85"
  />
</svg>
